<svg width="1200" height="900" viewBox="0 0 1200 900" fill="none" xmlns="http://www.w3.org/2000/svg">
  <rect width="1200" height="900" rx="44" fill="#FFF7F2"/>
  <rect x="46" y="46" width="1108" height="808" rx="34" fill="#FFFFFF" stroke="#EBD8DD"/>
  <circle cx="242" cy="236" r="86" fill="#FCE7EC"/>
  <circle cx="612" cy="180" r="64" fill="#F7E6C8"/>
  <circle cx="908" cy="264" r="78" fill="#FCEBED"/>
  <circle cx="310" cy="646" r="72" fill="#FCEBED"/>
  <circle cx="664" cy="680" r="92" fill="#F7E6C8"/>
  <circle cx="962" cy="598" r="64" fill="#FCE7EC"/>
  <path d="M242 236L612 180L908 264L962 598L664 680L310 646L242 236Z" stroke="#231A29" stroke-width="6" stroke-linecap="round" stroke-linejoin="round" stroke-dasharray="10 18" opacity="0.18"/>
  <path d="M242 236L310 646" stroke="#F56B93" stroke-width="8" stroke-linecap="round"/>
  <path d="M612 180L664 680" stroke="#F0B85F" stroke-width="8" stroke-linecap="round"/>
  <path d="M908 264L962 598" stroke="#E19AB3" stroke-width="8" stroke-linecap="round"/>
  <rect x="162" y="132" width="170" height="90" rx="24" fill="#231A29"/>
  <rect x="532" y="112" width="160" height="84" rx="24" fill="#FFFFFF" stroke="#EBD8DD"/>
  <rect x="828" y="180" width="162" height="90" rx="24" fill="#FFFFFF" stroke="#EBD8DD"/>
  <rect x="220" y="600" width="180" height="98" rx="24" fill="#FFFFFF" stroke="#EBD8DD"/>
  <rect x="572" y="632" width="184" height="100" rx="24" fill="#231A29"/>
  <rect x="894" y="552" width="138" height="84" rx="24" fill="#FFFFFF" stroke="#EBD8DD"/>
  <rect x="192" y="164" width="112" height="14" rx="7" fill="#F8D0D9"/>
  <rect x="560" y="138" width="100" height="14" rx="7" fill="#312636"/>
  <rect x="854" y="208" width="110" height="14" rx="7" fill="#312636"/>
  <rect x="246" y="626" width="122" height="14" rx="7" fill="#312636"/>
  <rect x="598" y="662" width="120" height="14" rx="7" fill="#F8D0D9"/>
  <rect x="920" y="580" width="88" height="14" rx="7" fill="#312636"/>
</svg>
