<svg width="1200" height="980" viewBox="0 0 1200 980" fill="none" xmlns="http://www.w3.org/2000/svg">
  <rect width="1200" height="980" rx="48" fill="#FFF8F7"/>
  <rect x="40" y="40" width="1120" height="900" rx="36" fill="#FFFDFC" stroke="#EBD5DB"/>
  <rect x="88" y="96" width="1024" height="72" rx="24" fill="#FFFFFF" stroke="#EAD4DB"/>
  <rect x="122" y="118" width="206" height="28" rx="14" fill="#231A29"/>
  <rect x="846" y="116" width="116" height="34" rx="17" fill="#F56B93"/>
  <rect x="980" y="116" width="98" height="34" rx="17" fill="#F8E0E7"/>
  <rect x="88" y="212" width="628" height="300" rx="34" fill="#231A29"/>
  <rect x="124" y="252" width="214" height="18" rx="9" fill="#F5C8D2" fill-opacity="0.95"/>
  <rect x="124" y="286" width="426" height="74" rx="20" fill="#2F2436"/>
  <rect x="124" y="382" width="168" height="44" rx="22" fill="#F56B93"/>
  <rect x="310" y="382" width="188" height="44" rx="22" fill="#3D313F"/>
  <rect x="756" y="212" width="356" height="300" rx="34" fill="#FFF1F4" stroke="#E9D2D8"/>
  <rect x="790" y="248" width="152" height="20" rx="10" fill="#231A29"/>
  <rect x="790" y="294" width="288" height="88" rx="24" fill="#FFFFFF" stroke="#ECD8DD"/>
  <circle cx="850" cy="338" r="34" fill="#F8DEE5"/>
  <rect x="900" y="318" width="132" height="18" rx="9" fill="#312636"/>
  <rect x="900" y="348" width="112" height="14" rx="7" fill="#B6A7B4"/>
  <rect x="790" y="404" width="322" height="74" rx="24" fill="#FFFFFF" stroke="#ECD8DD"/>
  <rect x="88" y="552" width="1024" height="320" rx="34" fill="#FFFFFF" stroke="#EAD5DB"/>
  <rect x="124" y="590" width="220" height="22" rx="11" fill="#231A29"/>
  <rect x="124" y="646" width="296" height="168" rx="28" fill="#FFF2F5" stroke="#EDD9DE"/>
  <rect x="452" y="646" width="296" height="168" rx="28" fill="#FFF7EF" stroke="#ECDDD2"/>
  <rect x="780" y="646" width="296" height="168" rx="28" fill="#FDF4F4" stroke="#EDD8DE"/>
  <path d="M212 732C212 695.549 241.549 666 278 666C314.451 666 344 695.549 344 732C344 768.451 314.451 798 278 798C241.549 798 212 768.451 212 732Z" fill="#F56B93" fill-opacity="0.16"/>
  <path d="M538 732C538 695.549 567.549 666 604 666C640.451 666 670 695.549 670 732C670 768.451 640.451 798 604 798C567.549 798 538 768.451 538 732Z" fill="#F0C57B" fill-opacity="0.18"/>
  <path d="M864 732C864 695.549 893.549 666 930 666C966.451 666 996 695.549 996 732C996 768.451 966.451 798 930 798C893.549 798 864 768.451 864 732Z" fill="#E8C7D6" fill-opacity="0.4"/>
</svg>
